# xmcd
#
# Track frame offsets:
#	150
#	10435
#	24985
#	38848
#	56114
#	71166
#	88208
#	102631
#	117362
#	135511
#	146911
#	163505
#	173108
#	190965
#	205845
#	219784
#	239209
#	253305
#	271006
#	286042
#	300922
#	316585
#	333972
#	348068
#
# Disc length: 4789 seconds
#
# Revision: 0
# Processed by: cddbd v1.5.1PL0 Copyright (c) Steve Scherf et al.
# Submitted via: EasyCDDAExtractor 8.0.2.1
#
DISCID=5f12b318
DTITLE=Various Artist - Streetmatic '05
DYEAR=2005
DGENRE=Hip-Hop
TTITLE0=01 - Who I Rep With Ft. 50 Cent-Drx
TTITLE1=02 - Body In The Trunk Ft. Noreaga-Drx
TTITLE2=03 - Too Hot Ft. 50 Cent And Nature-Drx
TTITLE3=04 - Bloody Money Ft. Capone N Noreaga-Drx
TTITLE4=05 - Its Mine Ft. Mobb Deep-Drx
TTITLE5=06 - Calm Down Ft. Capone N Noreaga-Drx
TTITLE6=07 - Give It Up Fast Ft. Mobb Deep And Big Noyd-Drx
TTITLE7=08 - Verbal Intercourse Ft. Raekwon And Ghostface-Drx
TTITLE8=09 - John Blaze Ft. Fat Joe Jadakiss Raekwon And Big Pun-Drx
TTITLE9=10 - Firm Biz Ft. Foxy Brown And Az-Drx
TTITLE10=11 - Journey Through The Life Ft. Beanie Sigel And P. Diddy-Drx
TTITLE11=12 - Show Discipline Ft. Jadakiss-Drx
TTITLE12=13 - Eye For An Eye Ft. Mobb Deep And Raekwon-Drx
TTITLE13=14 - Affirmative Action Ft. Foxy Brown Az And Cormega-Drx
TTITLE14=15 - Tick Tock Ft. Prodigy And Alchemist-Drx
TTITLE15=16 - Da Bridge 2001 Ft. Capone Mobb Deep Nature Tragedy Cormega Mille
TTITLE15=nium Thug Marley Marl And Mc Shan-Drx
TTITLE16=17 - Just A Moment Ft. Quan-Drx
TTITLE17=18 - Triple Threat Ft. Noreaga And Nature-Drx
TTITLE18=19 - Affirmative Action (Rmx) Ft. Foxy Brown Az And Cormega-Drx
TTITLE19=20 - Favor For A Favor Ft. Scarface-Drx
TTITLE20=21 - Made You Look (Rmx) Ft. Ludacris And Jadakiss-Drx
TTITLE21=22 - Mo Money Mo Murda Mo Homicide Ft. Az-Drx
TTITLE22=23 - Live At The Barbecue Ft. Main Source And Akinyele-Drx
TTITLE23=24 - Thugz Mansion Ft. 2pac-Drx
EXTD=
EXTT0=
EXTT1=
EXTT2=
EXTT3=
EXTT4=
EXTT5=
EXTT6=
EXTT7=
EXTT8=
EXTT9=
EXTT10=
EXTT11=
EXTT12=
EXTT13=
EXTT14=
EXTT15=
EXTT16=
EXTT17=
EXTT18=
EXTT19=
EXTT20=
EXTT21=
EXTT22=
EXTT23=
PLAYORDER=
